<svg xmlns="http://www.w3.org/2000/svg" id="Layer_1" data-name="Layer 1" viewBox="0 0 612 792">
  <defs>
    <style>
      .cls-1 {
        fill: none;
      }

      .cls-1, .cls-2, .cls-3 {
        stroke-width: 0px;
      }

      .cls-2 {
        fill: #797762;
      }

      .cls-3 {
        fill: #f78f25;
      }
    </style>
  </defs>
  <g>
    <polygon class="cls-1" points="100.67 187.07 399.81 498.16 420.5 498.16 100.67 165.52 100.67 187.07"/>
    <path class="cls-3" d="m447.88,305.63c29.13-9.32,44.86-21.85,44.86-80.1,0-66.7-44.27-90.59-124.38-90.59H125.72l68.74,71.66v-3.5h175.93c23.89,0,35.83,13.98,35.83,35.83,0,23.89-11.94,42.24-35.24,42.24h-104.86l61.46,64.08h43.4c44.86,0,49.52,13.11,49.52,40.49,0,20.68-2.62,32.33-17.48,37.87l57.09,59.42c31.46-15.15,46.9-44.57,46.9-93.21-.29-56.51-23.3-72.24-59.13-84.18Z"/>
    <polygon class="cls-2" points="420.5 498.16 437.39 498.16 440.89 494.67 100.96 140.47 100.67 141.05 100.67 165.52 420.5 498.16"/>
    <polygon class="cls-3" points="100.67 187.07 100.67 249.99 334.57 498.16 399.81 498.16 100.67 187.07"/>
  </g>
  <g>
    <path class="cls-2" d="m63.03,557.8c0,4.83-2.95,7.3-5.83,8.56,4.36,1.31,7.88,3.84,7.88,8.93,0,6.36-5.31,10.09-13.35,10.09h-16.34v-36.78h15.66c7.25,0,11.98,3.57,11.98,9.2Zm-4.2.57c0-3.67-2.89-6.05-8.15-6.05h-11.19v12.67h10.88c4.99,0,8.46-2.25,8.46-6.62Zm2.05,16.66c0-4.04-3.36-6.36-9.78-6.36h-11.61v12.98h12.35c5.57,0,9.04-2.47,9.04-6.62Z"/>
    <path class="cls-2" d="m73.52,568.84v16.55h-4.16v-36.78h4.16v16.34h21.23v-16.34h4.15v36.78h-4.15v-16.55h-21.23Z"/>
    <path class="cls-2" d="m139.6,585.39h-4.47l-4.31-9.72h-20.02l-4.36,9.72h-4.26l16.76-37.04h3.89l16.76,37.04Zm-18.76-32.21l-8.41,18.76h16.76l-8.35-18.76Z"/>
    <path class="cls-2" d="m169.95,548.61h4.04v36.78h-3.31l-23.75-30.16v30.16h-4.05v-36.78h3.89l23.17,29.48v-29.48Z"/>
    <path class="cls-2" d="m184.96,548.61v36.78h-4.15v-36.78h4.15Z"/>
    <path class="cls-2" d="m217.32,585.39l-11.77-15.81-11.77,15.81h-4.78l14.14-18.76-13.61-18.02h4.88l11.3,15.03,11.19-15.03h4.84l-13.61,17.97,14.14,18.81h-4.94Z"/>
    <path class="cls-2" d="m264.16,552.44h-22.28v13.14h19.92v3.78h-19.92v16.03h-4.16v-36.78h26.43v3.83Z"/>
    <path class="cls-2" d="m272.76,548.61v36.78h-4.15v-36.78h4.15Z"/>
    <path class="cls-2" d="m306.65,548.61h4.04v36.78h-3.31l-23.75-30.16v30.16h-4.05v-36.78h3.89l23.17,29.48v-29.48Z"/>
    <path class="cls-2" d="m351.39,585.39h-4.47l-4.31-9.72h-20.02l-4.36,9.72h-4.25l16.76-37.04h3.89l16.76,37.04Zm-18.76-32.21l-8.41,18.76h16.76l-8.35-18.76Z"/>
    <path class="cls-2" d="m381.74,548.61h4.04v36.78h-3.31l-23.75-30.16v30.16h-4.05v-36.78h3.89l23.17,29.48v-29.48Z"/>
    <path class="cls-2" d="m409.04,586.02c-10.61,0-18.44-8.36-18.44-18.97s7.78-19.07,18.6-19.07c6.67,0,10.67,2.36,14.35,5.83l-2.84,3.04c-3.1-2.93-6.57-5.04-11.56-5.04-8.15,0-14.24,6.57-14.24,15.13s6.15,15.24,14.24,15.24c5.04,0,8.35-1.94,11.88-5.31l2.73,2.68c-3.83,3.89-8.04,6.46-14.72,6.46Z"/>
    <path class="cls-2" d="m453.64,552.39h-22.44v12.56h20.07v3.78h-20.07v12.88h22.7v3.78h-26.86v-36.78h26.6v3.78Z"/>
    <path class="cls-2" d="m504.37,585.39h-4.47l-4.31-9.72h-20.02l-4.36,9.72h-4.26l16.76-37.04h3.89l16.76,37.04Zm-18.76-32.21l-8.41,18.76h16.76l-8.35-18.76Z"/>
    <path class="cls-2" d="m534.72,548.61h4.04v36.78h-3.31l-23.75-30.16v30.16h-4.05v-36.78h3.89l23.17,29.48v-29.48Z"/>
    <path class="cls-2" d="m557.98,585.39h-12.77v-36.78h12.77c11.56,0,19.55,7.93,19.55,18.33s-7.98,18.45-19.55,18.45Zm0-32.95h-8.62v29.11h8.62c9.3,0,15.24-6.3,15.24-14.5s-5.94-14.61-15.24-14.61Z"/>
    <path class="cls-2" d="m43.08,619.76v36.78h-4.15v-36.78h4.15Z"/>
    <path class="cls-2" d="m78.28,619.76h4.04v36.78h-3.31l-23.75-30.16v30.16h-4.05v-36.78h3.89l23.17,29.48v-29.48Z"/>
    <path class="cls-2" d="m117.78,619.76h4.47l-15.82,37.04h-3.68l-15.81-37.04h4.62l13.08,31.69,13.14-31.69Z"/>
    <path class="cls-2" d="m153.44,623.54h-22.44v12.56h20.07v3.78h-20.07v12.88h22.7v3.78h-26.86v-36.78h26.6v3.78Z"/>
    <path class="cls-2" d="m172.59,636.15c8.2,1.79,11.99,4.78,11.99,10.46,0,6.36-5.26,10.46-12.56,10.46-5.83,0-10.61-1.94-15.03-5.88l2.58-3.05c3.83,3.47,7.51,5.2,12.61,5.2s8.2-2.58,8.2-6.31c0-3.46-1.84-5.4-9.56-7.04-8.46-1.84-12.35-4.57-12.35-10.66s5.1-10.09,12.09-10.09c5.36,0,9.2,1.51,12.93,4.51l-2.42,3.21c-3.42-2.78-6.83-4-10.61-4-4.78,0-7.83,2.64-7.83,6s1.89,5.46,9.98,7.19Z"/>
    <path class="cls-2" d="m203.53,656.54h-4.2v-32.95h-12.35v-3.83h28.9v3.83h-12.35v32.95Z"/>
    <path class="cls-2" d="m238.66,646.45h-.21l-13.4-19.65v29.74h-4.05v-36.78h4.2l13.4,20.07,13.4-20.07h4.2v36.78h-4.15v-29.79l-13.4,19.7Z"/>
    <path class="cls-2" d="m290.56,623.54h-22.44v12.56h20.07v3.78h-20.07v12.88h22.7v3.78h-26.86v-36.78h26.6v3.78Z"/>
    <path class="cls-2" d="m323.59,619.76h4.04v36.78h-3.31l-23.75-30.16v30.16h-4.05v-36.78h3.89l23.17,29.48v-29.48Z"/>
    <path class="cls-2" d="m349.32,656.54h-4.2v-32.95h-12.35v-3.83h28.9v3.83h-12.35v32.95Z"/>
    <path class="cls-2" d="m379.92,619.76h4.16v32.94h20.7v3.84h-24.86v-36.78Z"/>
    <path class="cls-2" d="m414.32,619.76v36.78h-4.15v-36.78h4.15Z"/>
    <path class="cls-2" d="m440.11,646.45h-.21l-13.4-19.65v29.74h-4.05v-36.78h4.2l13.4,20.07,13.4-20.07h4.2v36.78h-4.15v-29.79l-13.4,19.7Z"/>
    <path class="cls-2" d="m469.93,619.76v36.78h-4.15v-36.78h4.15Z"/>
    <path class="cls-2" d="m492,656.54h-4.2v-32.95h-12.35v-3.83h28.9v3.83h-12.35v32.95Z"/>
    <path class="cls-2" d="m536.07,623.54h-22.44v12.56h20.07v3.78h-20.07v12.88h22.7v3.78h-26.86v-36.78h26.6v3.78Z"/>
    <path class="cls-2" d="m554.81,656.54h-12.77v-36.78h12.77c11.56,0,19.55,7.93,19.55,18.33s-7.98,18.45-19.55,18.45Zm0-32.95h-8.62v29.11h8.62c9.3,0,15.24-6.3,15.24-14.5s-5.94-14.61-15.24-14.61Z"/>
  </g>
</svg>