<svg xmlns="http://www.w3.org/2000/svg" width="200" height="69" viewBox="0 0 200 69" fill="none">
<rect width="200" height="69" rx="2" fill="#FFCB05"/>
<path fill-rule="evenodd" clip-rule="evenodd" d="M34.7032 38.4346L41.3562 26.8827H36.8595L39.0938 23.005H49.6601L47.4226 26.8952L43.5999 26.8827L36.8595 38.6126C44.3676 38.6126 50.5183 32.4589 50.5183 24.9407C50.5183 17.4226 44.3676 11.3064 36.8595 11.3064C36.3134 11.3064 35.7642 11.3376 35.2493 11.4063L28.54 23.005H36.8595L34.6064 26.8827H24.0589L32.6654 11.9745C27.1888 13.7541 23.2163 18.9057 23.2163 24.9376C23.2163 31.722 28.203 37.3887 34.7063 38.4346M36.8564 9.35504C45.4286 9.35504 52.4561 16.3518 52.4561 24.9407C52.4561 33.5297 45.4286 40.5577 36.8564 40.5577C28.2842 40.5577 21.2722 33.5516 21.2722 24.9407C21.2722 16.3299 28.2623 9.35504 36.8564 9.35504Z" fill="#231F20"/>
<path fill-rule="evenodd" clip-rule="evenodd" d="M58.1853 32.5182H67.157L67.6906 30.0673H61.8208L64.6043 16.9575H61.4838L58.1853 32.5182Z" fill="#231F20"/>
<path fill-rule="evenodd" clip-rule="evenodd" d="M78.0593 32.5181H81.4046L79.5978 29.8924C81.1362 28.3314 82.0069 26.2114 82.2752 24.0696H79.551C79.5073 25.4309 78.9518 26.7078 78.1904 27.8162L75.9436 24.5817C78.0156 23.823 79.9972 22.7115 79.9972 20.2357C79.9972 17.7598 77.5476 16.6889 75.6971 16.6889C73.3348 16.6889 71.0443 17.9565 71.0443 20.6322C71.0443 22.0184 71.5092 22.6865 72.1334 23.5358C69.8616 24.2226 67.8519 25.7837 67.8519 28.3688C67.8519 31.5159 70.5263 32.7866 73.2661 32.7866C74.7172 32.7866 76.499 32.3402 77.5039 31.6252L78.0593 32.5181ZM76.187 29.6864C75.4942 30.2015 74.4956 30.4669 73.5626 30.4669C72.0866 30.4669 70.8446 29.8487 70.8446 28.2158C70.8446 26.583 72.1365 25.9897 73.4284 25.4996L76.1901 29.6895L76.187 29.6864ZM77.4165 20.2357C77.4165 21.728 75.8562 22.3743 74.7172 22.6897C74.3146 22.1308 73.8934 21.3971 73.8934 20.7258C73.8934 19.5457 74.7422 18.8744 75.8562 18.8744C76.6114 18.8744 77.4165 19.1835 77.4165 20.2357Z" fill="#231F20"/>
<path fill-rule="evenodd" clip-rule="evenodd" d="M81.8555 19.4115H86.0153L83.188 32.5182H86.4397L89.27 19.4115H93.1957L93.7106 16.9575H82.3891L81.8555 19.4115Z" fill="#231F20"/>
<path d="M100.287 16.9605H108.872L108.332 19.4114H102.896L102.072 23.2485H107.265L106.775 25.6994H101.56L100.131 32.5212H97.0137L100.287 16.9605Z" fill="#231F20"/>
<path d="M109.937 21.0381H112.926L110.473 32.5213H107.487L109.937 21.0381ZM111.029 16.0895H114.018L113.394 18.9431H110.408L111.029 16.0895Z" fill="#231F20"/>
<path d="M114.868 22.6896C114.999 21.9965 115.114 21.394 115.158 21.038H118.072L117.876 22.1495H117.916C118.74 21.394 119.876 20.7695 121.171 20.7695C123.424 20.7695 124.916 22.1745 124.916 24.4505C124.916 25.3185 124.691 26.2333 124.535 26.9451L123.334 32.5213H120.347L121.461 27.1075C121.617 26.3207 121.798 25.5402 121.798 24.6941C121.798 23.7356 121.124 23.0862 120.17 23.0862C118.097 23.0862 117.339 25.0281 116.962 26.7484L115.735 32.5213H112.746L114.865 22.6896H114.868Z" fill="#231F20"/>
<path d="M132.723 30.7635H132.679C131.652 32.0561 130.626 32.7929 128.975 32.7929C126.903 32.7929 125.433 31.6315 125.433 29.5147C125.433 25.7244 129.667 25.4372 132.476 25.4372H133.521C133.612 25.1218 133.612 24.7878 133.612 24.4568C133.612 23.2985 132.364 22.9582 131.315 22.9582C129.998 22.9582 128.731 23.2985 127.549 23.8511L127.973 21.4658C129.243 21.0225 130.535 20.7758 131.874 20.7758C134.17 20.7758 136.333 21.625 136.333 24.3226C136.333 25.8587 135.197 30.3608 134.929 32.5275H132.407L132.719 30.7667L132.723 30.7635ZM129.802 30.6074C132.03 30.6074 132.723 29.0651 133.188 27.2137H132.139C130.691 27.2137 128.285 27.4603 128.285 29.3992C128.285 30.2015 129.043 30.6043 129.802 30.6043V30.6074Z" fill="#231F20"/>
<path d="M139.014 22.6896C139.145 21.9965 139.258 21.394 139.301 21.038H142.219L142.019 22.1495H142.066C142.89 21.394 144.026 20.7695 145.318 20.7695C147.568 20.7695 149.066 22.1745 149.066 24.4505C149.066 25.3185 148.844 26.2333 148.685 26.9451L147.483 32.5213H144.497L145.608 27.1075C145.764 26.3207 145.945 25.5402 145.945 24.6941C145.945 23.7356 145.274 23.0862 144.319 23.0862C142.244 23.0862 141.489 25.0281 141.108 26.7484L139.882 32.5213H136.895L139.014 22.6896Z" fill="#231F20"/>
<path d="M159.049 23.67C158.471 23.2923 157.691 23.0862 156.864 23.0862C154.48 23.0862 153.141 25.3185 153.141 27.4822C153.141 28.9746 153.631 30.4701 155.682 30.4701C156.418 30.4701 157.332 30.2671 158.113 29.8893L157.779 32.2559C156.864 32.6993 155.884 32.7898 154.905 32.7898C151.94 32.7898 150.024 30.8041 150.024 27.8381C150.024 23.8262 152.673 20.7727 156.796 20.7727C157.913 20.7727 158.98 20.9725 159.782 21.2161L159.049 23.67Z" fill="#231F20"/>
<path d="M161.638 27.7039C161.638 29.8238 162.771 30.6074 164.824 30.6074C166.048 30.6074 167.23 30.2921 168.344 29.7801L167.967 32.1435C166.809 32.4995 165.539 32.7898 164.313 32.7898C161.014 32.7898 158.786 31.1819 158.786 27.7725C158.786 24.3632 161.548 20.7727 165.314 20.7727C168.142 20.7727 170.017 22.2245 170.017 25.1437C170.017 26.0117 169.905 26.8609 169.727 27.707H161.638V27.7039ZM167.099 25.6526C167.143 25.3872 167.165 25.1406 167.165 24.8752C167.165 23.6482 166.519 22.952 165.268 22.952C163.42 22.952 162.615 24.0697 162.038 25.6526H167.099Z" fill="#231F20"/>
<path d="M171.506 47.2172H0V54.2295H167.246L162.216 62.5063H170.02L179.31 47.2172H171.506Z" fill="#00AEEF"/>
</svg>