<svg xmlns="http://www.w3.org/2000/svg" width="452.586" height="386.525" viewBox="0 0 452.586 386.525">
  <g id="Pay_with_Ring_Logo_Colour_-Blue-01" data-name="Pay with Ring Logo Colour -Blue-01" transform="translate(-31.92 -31.18)">
    <path id="Path_1" data-name="Path 1" d="M419.659,59.462A164.744,164.744,0,0,1,553.116,127.45h33.74a193.319,193.319,0,0,0-334.435.084h33.726A164.736,164.736,0,0,1,419.659,59.462Z" transform="translate(-143.253)" fill="#2b3277"/>
    <path id="Path_2" data-name="Path 2" d="M520.842,874.784A164.985,164.985,0,0,1,274.626,840.35H241.8a193.3,193.3,0,0,0,303.432,50.5A68.591,68.591,0,0,1,520.842,874.784Z" transform="translate(-136.354 -525.697)" fill="#2b3277"/>
    <rect id="Rectangle_1" data-name="Rectangle 1" width="6.978" height="27.466" transform="translate(426.433 152.974)" fill="#2b3277"/>
    <path id="Path_3" data-name="Path 3" d="M1028.934,352.66l-8.029-.007-6.891,26.152-7.819-26.155-8.065.01,10.731,36.637h9.35l6.309-25.619,5.969,25.619h9.406l10.671-36.648h-8.089l-7.157,26.022Z" transform="translate(-627.721 -208.851)" fill="#2b3277"/>
    <path id="Path_4" data-name="Path 4" d="M807.767,610.664v-49.7h-.01c-.112-29.018-15.12-50.23-42.319-50.23-13.74,0-24.982,6.754-32.755,17.723v-17.2H708.74v99.409h23.941V563.647c.011-16.08,13.971-30.685,25.567-31.522,11.883-1.142,25.567,4.785,25.567,29.161h.01v49.378Z" transform="translate(-439.712 -311.551)" fill="#2b3277"/>
    <rect id="Rectangle_2" data-name="Rectangle 2" width="23.945" height="99.412" transform="translate(225.934 199.704)" fill="#2b3277"/>
    <path id="Path_5" data-name="Path 5" d="M1193.486,357.283v.137l-.052.018v5.469h-4.673v7.259s4.673,0,4.673.028v13.225c0,.088,0,.175,0,.263,0,.046,0,.091.007.133,0,.021,0,.046,0,.067v.018c0,.014,0,.028,0,.039.007.074.011.147.017.221s.014.144.021.217.018.14.025.214.017.14.028.207.021.137.035.2.025.133.038.2.028.13.042.2.028.126.046.189.032.123.049.186.035.123.053.182l.052.179c.018.06.039.116.056.172s.039.112.06.168.042.112.063.165.046.109.067.161.046.105.07.158.049.1.074.154.049.1.077.151.053.1.077.147.053.095.081.14l.084.137c.028.046.056.091.084.133s.06.088.088.13.06.084.091.126.059.084.091.123.063.081.095.119.063.077.1.116.066.077.1.112.067.074.1.112.067.074.1.109l.105.105c.035.035.07.067.105.1s.07.067.109.1.074.063.109.095a1.435,1.435,0,0,0,.112.091c.039.031.073.06.112.088l.116.084.116.084c.039.028.077.052.115.081s.077.053.119.077l.119.074c.039.025.081.049.119.07s.081.046.119.07.081.046.123.067l.123.063.122.063.123.06c.042.018.084.039.123.056s.084.035.126.056l.126.053c.042.018.084.035.126.049s.084.031.126.049.084.032.126.046l.126.042.126.042c.042.014.084.028.126.039s.084.025.126.039a.2.2,0,0,1,.042.014c.038.011.08.025.123.035.063.018.126.035.189.049a21.123,21.123,0,0,0,7.634.228.386.386,0,0,1,.007-.063l-.007-2.214v-4.274a8.556,8.556,0,0,1-3.77.039c-1.748-.431-2.361-1.191-2.361-2.894V370.157h6.145V362.9h-6.145v-7.8Z" transform="translate(-751.569 -210.442)" fill="#2b3277"/>
    <path id="Path_6" data-name="Path 6" d="M1258.679,374.206a5.54,5.54,0,0,1,11.077,0v15.085h7.049V372.616a10.345,10.345,0,0,0-10.443-10.24,12.791,12.791,0,0,0-7.893,2.918V352.64h-6.979v36.648h7.2V374.206Z" transform="translate(-792.323 -208.844)" fill="#2b3277"/>
    <path id="Path_7" data-name="Path 7" d="M1159.395,346.55a4.268,4.268,0,1,0,4.355,4.267A4.312,4.312,0,0,0,1159.395,346.55Z" transform="translate(-729.662 -204.888)" fill="#2b3277"/>
    <path id="Path_8" data-name="Path 8" d="M44.959,378.84l101.826.154a36.676,36.676,0,0,1,36.774,36.578c0,.585-.011,1.167-.046,1.752-.963,19.6-18.017,34.647-37.783,34.647H112.04L162.487,508.6h35l-30.527-33.554a55.082,55.082,0,0,0,43.581-53.7V407.938c0-30.373-24.814-55-55.422-55H44.984a12.95,12.95,0,1,0-.025,25.9Z" transform="translate(0 -209.039)" fill="#2b3277"/>
    <path id="Path_9" data-name="Path 9" d="M85.5,546.529,62.334,520.595h5.08a3.353,3.353,0,0,1,.494-.035h86.3a12.651,12.651,0,1,0,0-25.3h-86.3A27.838,27.838,0,0,0,47.085,541.6l53.127,59.664h34.031Z" transform="translate(-5.24 -301.5)" fill="#2b3277"/>
    <path id="Path_10" data-name="Path 10" d="M1109.118,511.87v10.188a47.193,47.193,0,0,0-29.42-10.387c-27.3,0-49.508,19.534-49.508,52.924,0,29.2,22.211,52.934,49.508,52.934a47.123,47.123,0,0,0,29.42-10.387v15.106c0,10.913-11.463,19.779-25.567,19.779-10.457,0-20.056-5.122-23.878-12.748l-21.436,10.59c7.9,15.744,25.689,25.921,45.311,25.921,27.08,0,49.154-19.233,49.5-42.971h.01V511.87Zm-29.42,81.9c-14.1,0-25.567-13.081-25.567-29.175s11.463-29.161,25.567-29.161,25.567,13.085,25.567,29.161C1105.265,580.684,1093.8,593.766,1079.7,593.766Z" transform="translate(-648.55 -312.162)" fill="#2b3277"/>
    <path id="Path_11" data-name="Path 11" d="M600.724,374.747a15.528,15.528,0,0,0-11.232-4.551,15.846,15.846,0,0,0-11.133,4.551A15.578,15.578,0,0,0,575,379.666a16.05,16.05,0,0,0,0,12.254,15.7,15.7,0,0,0,14.49,9.469v-.011a15.528,15.528,0,0,0,11.232-4.551,15.386,15.386,0,0,0,0-22.081Z" transform="translate(-352.036 -220.249)" fill="#2b3277"/>
    <path id="Path_12" data-name="Path 12" d="M819.965,405.282V377.491h-6.446v3.086a14.719,14.719,0,0,0-9.2-3.188c-8.327-.063-14.178,5.984-14.038,14.262a14.142,14.142,0,0,0,23.23,10.685v2.946Zm-15.4-6a7.8,7.8,0,1,1,7.283-7.805A7.524,7.524,0,0,1,804.565,399.281Z" transform="translate(-492.689 -224.923)" fill="#2b3277"/>
    <path id="Path_13" data-name="Path 13" d="M722.764,377.17a12.606,12.606,0,0,0,9.087-3.549,12.142,12.142,0,0,0,0-17.432,12.611,12.611,0,0,0-9.087-3.549H708.81v36.532h7.378v-12h6.576Zm-6.576-17.8h6.576a5.262,5.262,0,0,1,3.9,1.566,5.811,5.811,0,0,1,0,7.907,5.215,5.215,0,0,1-3.9,1.59h-6.576Z" transform="translate(-439.758 -208.844)" fill="#2b3277"/>
    <path id="Path_14" data-name="Path 14" d="M894.063,409.836A8.048,8.048,0,0,1,889.1,411.1V418a14.728,14.728,0,0,0,9.634-2.5q3.873-2.79,6.215-8.951l10.958-28.8H907.62l-6.649,19.324-7.837-19.324H884.66l12.321,27.83A8.8,8.8,0,0,1,894.063,409.836Z" transform="translate(-554.003 -225.157)" fill="#2b3277"/>
  </g>
</svg>