<svg width="46" height="16" viewBox="0 0 46 16" fill="none" xmlns="http://www.w3.org/2000/svg"><path d="M15.947 12.0857C14.9171 13.7668 12.4615 16.6204 11.3694 15.8798C10.6413 15.3857 9.83512 14.1218 9.09115 10.3019C9.08784 10.2853 9.08453 10.2688 9.08056 10.2516L9.06666 10.1853C8.34851 6.56606 6.89168 5.89507 6.75665 5.84009H6.75136H6.74805L6.94132 5.8891C7.69654 6.08252 10.4202 6.80518 10.9709 7.30197C11.4627 7.7451 11.4343 7.98621 11.799 9.80577C11.8843 10.2277 11.973 10.845 12.0935 11.1709C12.0953 11.1748 12.0969 11.1788 12.0981 11.1829C12.1709 11.4074 13.3074 14.7279 15.5155 12.6229C15.6791 12.4606 15.8238 12.2804 15.947 12.0857V12.0857Z" fill="#4D6CD9"/><path d="M17.828 6.42548C17.828 6.41555 17.828 6.39766 17.828 6.37316C17.838 6.27247 17.8446 6.18372 17.8466 6.1082C17.8499 5.96844 18.1477 2.5373 12.4336 2.84266C10.8978 2.91703 9.38003 3.20689 7.92479 3.70376C4.86287 4.82981 4.92972 5.26036 6.94386 5.87968L6.75059 5.83067H6.7539H6.75919C6.89157 5.88564 8.35105 6.55929 9.0692 10.1759C7.9645 9.36315 5.98014 8.57226 4.90788 8.21325C2.01474 7.24419 -1.56544 6.22611 0.733975 4.42973C4.27378 1.63116 7.43366 0.846243 9.57356 0.37264C12.147 -0.195022 16.4017 -0.136732 17.2184 0.70383C18.3006 1.81332 17.8512 6.21153 17.828 6.42548Z" fill="url(#paint0_linear_3594_98795)"/><path d="M15.9466 12.0855C15.8227 12.2775 15.678 12.4552 15.5151 12.6154C13.307 14.7204 12.1705 11.3999 12.0977 11.1753C12.0977 11.172 12.0977 11.1674 12.0931 11.1634C12.424 11.125 14.2628 10.2871 14.965 6.5996C15.6805 2.84456 12.291 2.86178 12.0156 2.86907C12.1579 2.85714 12.2956 2.8492 12.4306 2.84125C18.1448 2.53589 17.8469 5.96703 17.8436 6.10679C17.8436 6.1823 17.835 6.27106 17.8251 6.37174C17.696 7.60245 16.9355 10.5977 15.9466 12.0855Z" fill="url(#paint1_linear_3594_98795)"/><path d="M24.869 5.08545C23.9463 5.08545 23.2142 5.3504 22.6907 5.87368C22.1671 6.39696 21.9023 7.12691 21.9023 8.04365V13.1738H23.148L23.1606 10.5779C23.3076 10.6675 23.4627 10.7429 23.6239 10.8031C24.0249 10.948 24.4487 11.0189 24.8749 11.0124C25.7903 11.0124 26.5204 10.7475 27.0433 10.2235C27.5662 9.6996 27.8309 8.96502 27.8309 8.04365C27.8309 7.12227 27.5662 6.39696 27.0433 5.87368C26.5204 5.3504 25.7844 5.08545 24.869 5.08545ZM26.1504 9.32933C25.8651 9.61217 25.4336 9.7559 24.869 9.7559C24.3044 9.7559 23.8649 9.61283 23.5829 9.33065C23.3009 9.04848 23.158 8.61528 23.158 8.04365C23.158 7.47201 23.3009 7.04676 23.5842 6.76128C23.8675 6.47579 24.2984 6.33205 24.869 6.33205C25.4395 6.33205 25.8618 6.47645 26.1491 6.76194C26.4363 7.04742 26.5793 7.4793 26.5793 8.04365C26.5793 8.608 26.435 9.04914 26.1504 9.33132V9.32933Z" fill="#3A51A3"/><path d="M29.1826 5.88892C28.6974 6.41419 28.4512 7.14347 28.4512 8.05557V10.9654H29.7088V8.05557C29.7088 7.4846 29.8411 7.04941 30.096 6.7626C30.3508 6.47579 30.7168 6.34331 31.2212 6.34331H31.5065V5.08545H31.2232C30.3627 5.08545 29.6737 5.35703 29.1826 5.88892Z" fill="#3A51A3"/><path d="M34.7648 5.07764C33.8421 5.07764 33.11 5.34259 32.5858 5.87249C32.0616 6.4024 31.7988 7.13102 31.7988 8.04643V8.05637C31.7988 8.9731 32.0636 9.70305 32.5871 10.2263C33.1107 10.7496 33.8395 11.0152 34.7555 11.0152C35.6431 11.0152 36.3613 10.7576 36.8901 10.2502L37.098 10.0515L36.219 9.15195L36.0158 9.35066C35.7325 9.6229 35.3089 9.76067 34.7582 9.76067C34.2425 9.76067 33.8401 9.64211 33.5621 9.40696C33.3454 9.21914 33.1944 8.96683 33.1312 8.68695H37.1066C37.2695 8.68729 37.426 8.62381 37.5428 8.5101C37.6042 8.45223 37.653 8.38217 37.6859 8.30439C37.7189 8.22661 37.7353 8.14282 37.734 8.05835V8.04842C37.734 7.13234 37.4693 6.40108 36.9464 5.87448C36.4235 5.34789 35.6881 5.07764 34.7648 5.07764ZM33.1239 7.42777C33.1833 7.14211 33.3347 6.88382 33.5548 6.69252C33.8361 6.45473 34.2432 6.33417 34.7648 6.33417C35.2864 6.33417 35.6914 6.45473 35.9754 6.69252C36.1958 6.88453 36.349 7.14223 36.4122 7.42777H33.1239Z" fill="#3A51A3"/><path d="M39.7022 5.95059C39.7022 5.38558 39.8458 4.95702 40.1238 4.67749C40.4237 4.3887 40.8427 4.24827 41.4039 4.24827H41.6886V2.98975H41.4039C40.4879 2.98975 39.7578 3.2547 39.2349 3.77864C38.712 4.30259 38.4473 5.03187 38.4473 5.94861V10.9635H39.7049V7.89071H41.4132L41.7898 6.63218H39.7022V5.95059Z" fill="#3A51A3"/><path d="M45.0857 5.08545C44.2253 5.08545 43.5376 5.35504 43.0464 5.88693C42.5553 6.41882 42.3184 7.14148 42.3184 8.05358V10.9634H43.576V8.05557C43.576 7.48459 43.7083 7.04941 43.9632 6.7626C44.218 6.47579 44.584 6.34331 45.0884 6.34331H45.3737V5.08545H45.0857Z" fill="#3A51A3"/><defs><linearGradient id="paint0_linear_3594_98795" x1="18.2589" y1="-0.042674" x2="2.84739" y2="9.15244" gradientUnits="userSpaceOnUse"><stop stop-color="#4D6CD7"/><stop offset="0.15" stop-color="#3E5ABC"/><stop offset="0.32" stop-color="#324CA6"/><stop offset="0.5" stop-color="#2A4296"/><stop offset="0.71" stop-color="#253C8D"/><stop offset="1" stop-color="#233A8A"/></linearGradient><linearGradient id="paint1_linear_3594_98795" x1="10.3953" y1="13.2976" x2="16.3355" y2="3.67513" gradientUnits="userSpaceOnUse"><stop stop-color="#38C5A2"/><stop offset="0.52" stop-color="#38F2A2"/><stop offset="1" stop-color="#38D2A2"/></linearGradient></defs></svg>